<svg xmlns="http://www.w3.org/2000/svg" fill="none" viewBox="-0.5 -0.5 16 16" stroke-linecap="round" stroke-linejoin="round" stroke="#000000" id="Envelope--Streamline-Mynaui" height="16" width="16"><desc>Envelope Streamline Icon: https://streamlinehq.com</desc><path d="m1.473125 4.82125 4.362500000000001 2.90875c0.6018749999999999 0.400625 0.9025 0.60125 1.2275 0.679375a1.875 1.875 0 0 0 0.8737499999999999 0c0.325 -0.078125 0.6256249999999999 -0.27875 1.2268750000000002 -0.679375l4.362500000000001 -2.90875M4.47375 12.1875h6.05375c1.05 0 1.575 0 1.9762499999999998 -0.204375a1.875 1.875 0 0 0 0.8187500000000001 -0.819375c0.20500000000000002 -0.40125 0.20500000000000002 -0.92625 0.20500000000000002 -1.9762499999999998V5.8125c0 -1.05 0 -1.575 -0.204375 -1.9762499999999998a1.875 1.875 0 0 0 -0.819375 -0.819375c-0.40125 -0.204375 -0.92625 -0.204375 -1.9762499999999998 -0.204375H4.473125c-1.05 0 -1.575 0 -1.9762499999999998 0.204375a1.875 1.875 0 0 0 -0.8187500000000001 0.819375c-0.20500000000000002 0.40125 -0.20500000000000002 0.92625 -0.20500000000000002 1.9762499999999998v3.375c0 1.05 0 1.575 0.204375 1.9762499999999998a1.875 1.875 0 0 0 0.819375 0.819375c0.40125 0.204375 0.92625 0.204375 1.9762499999999998 0.204375" stroke-width="1"></path></svg>