<svg viewBox="0 0 16 16" fill="none" xmlns="http://www.w3.org/2000/svg" id="User-Id--Streamline-Solar" height="16" width="16"><desc>User Id Streamline Icon: https://streamlinehq.com</desc><path fill-rule="evenodd" clip-rule="evenodd" d="M6.666666666666666 2.6666666666666665h2.6666666666666665c2.514133333333333 0 3.7712666666666665 0 4.552266666666666 0.7810466666666667C14.666666666666666 4.228766666666666 14.666666666666666 5.48584 14.666666666666666 8c0 2.514133333333333 0 3.7712666666666665 -0.7810666666666666 4.552266666666666C13.1046 13.333333333333332 11.847466666666666 13.333333333333332 9.333333333333332 13.333333333333332h-2.6666666666666665c-2.51416 0 -3.7712333333333334 0 -4.552286666666666 -0.7810666666666666C1.3333333333333333 11.771266666666666 1.3333333333333333 10.514133333333334 1.3333333333333333 8c0 -2.51416 0 -3.7712333333333334 0.7810466666666667 -4.552286666666666C2.895433333333333 2.6666666666666665 4.152506666666667 2.6666666666666665 6.666666666666666 2.6666666666666665Zm2.1666666666666665 3.333333333333333c0 -0.27614 0.22386666666666666 -0.5 0.5 -0.5h3.333333333333333c0.27613333333333334 0 0.5 0.22385999999999998 0.5 0.5s-0.22386666666666666 0.5 -0.5 0.5h-3.333333333333333c-0.27613333333333334 0 -0.5 -0.22385999999999998 -0.5 -0.5Zm0.6666666666666666 2c0 -0.27613333333333334 0.22386666666666666 -0.5 0.5 -0.5h2.6666666666666665c0.27613333333333334 0 0.5 0.22386666666666666 0.5 0.5s-0.22386666666666666 0.5 -0.5 0.5h-2.6666666666666665c-0.27613333333333334 0 -0.5 -0.22386666666666666 -0.5 -0.5Zm0.6666666666666666 2c0 -0.27613333333333334 0.22386666666666666 -0.5 0.5 -0.5h2c0.27613333333333334 0 0.5 0.22386666666666666 0.5 0.5s-0.22386666666666666 0.5 -0.5 0.5h-2c-0.27613333333333334 0 -0.5 -0.22386666666666666 -0.5 -0.5ZM7.333333333333333 6c0 0.7363999999999999 -0.5969333333333333 1.3333333333333333 -1.3333333333333333 1.3333333333333333 -0.73638 0 -1.3333333333333333 -0.5969333333333333 -1.3333333333333333 -1.3333333333333333 0 -0.73638 0.5969533333333332 -1.3333333333333333 1.3333333333333333 -1.3333333333333333 0.7363999999999999 0 1.3333333333333333 0.5969533333333332 1.3333333333333333 1.3333333333333333Zm-1.3333333333333333 5.333333333333333c2.6666666666666665 0 2.6666666666666665 -0.5969333333333333 2.6666666666666665 -1.3333333333333333s-1.1939333333333333 -1.3333333333333333 -2.6666666666666665 -1.3333333333333333c-1.47276 0 -2.6666666666666665 0.5969333333333333 -2.6666666666666665 1.3333333333333333s0 1.3333333333333333 2.6666666666666665 1.3333333333333333Z" fill="#000000" stroke-width="0.6667"></path></svg>