<svg viewBox="0 0 16 16" fill="none" xmlns="http://www.w3.org/2000/svg" id="User-Circle--Streamline-Solar" height="16" width="16"><desc>User Circle Streamline Icon: https://streamlinehq.com</desc><path fill-rule="evenodd" clip-rule="evenodd" d="M14.666666666666666 8c0 3.6818666666666666 -2.9848 6.666666666666666 -6.666666666666666 6.666666666666666 -3.6818999999999997 0 -6.666666666666666 -2.9848 -6.666666666666666 -6.666666666666666C1.3333333333333333 4.318099999999999 4.318099999999999 1.3333333333333333 8 1.3333333333333333c3.6818666666666666 0 6.666666666666666 2.9847666666666663 6.666666666666666 6.666666666666666Zm-4.666666666666666 -2c0 1.1046 -0.8954 2 -2 2s-2 -0.8954 -2 -2c0 -1.1045666666666665 0.8954 -2 2 -2s2 0.8954333333333333 2 2Zm-2 7.666666666666666c1.1893333333333334 0 2.2931333333333335 -0.36639999999999995 3.2045999999999997 -0.9925333333333333 0.40259999999999996 -0.2765333333333333 0.5746 -0.8033333333333333 0.3406 -1.232C11.059999999999999 10.553533333333332 10.060133333333333 10 7.999933333333333 10c-2.0601399999999996 0 -3.059953333333333 0.5534666666666667 -3.545173333333333 1.442133333333333 -0.23406 0.42866666666666664 -0.06202666666666666 0.9554 0.34054666666666666 1.2319333333333333C5.706786666666667 13.300199999999998 6.810599999999999 13.666666666666666 8 13.666666666666666Z" fill="#000000" stroke-width="0.6667"></path></svg>