<svg xmlns="http://www.w3.org/2000/svg" fill="none" viewBox="-0.5 -0.5 16 16" stroke-linecap="round" stroke-linejoin="round" stroke="#000000" id="File-Text--Streamline-Mynaui" height="16" width="16"><desc>File Text Streamline Icon: https://streamlinehq.com</desc><path d="M5.92375 1.875H4.53125A1.40625 1.40625 0 0 0 3.125 3.28125v8.4375A1.40625 1.40625 0 0 0 4.53125 13.125h5.625a1.40625 1.40625 0 0 0 1.40625 -1.40625V7.5M5.92375 1.875c0.7768750000000001 0 1.42 0.6293749999999999 1.42 1.40625V4.6875A1.40625 1.40625 0 0 0 8.75 6.09375h1.40625A1.40625 1.40625 0 0 1 11.5625 7.5M5.92375 1.875c2.30625 0 5.63875 3.35 5.63875 5.625M5.625 10.3125h3.75m-3.75 -1.875h2.5" stroke-width="1"></path></svg>