<svg xmlns="http://www.w3.org/2000/svg" fill="none" viewBox="-0.5 -0.5 16 16" stroke-linecap="round" stroke-linejoin="round" stroke="#000000" id="Grid-One--Streamline-Mynaui" height="16" width="16"><desc>Grid One Streamline Icon: https://streamlinehq.com</desc><path d="M5.875 13.125h3.25m-3.25 0c-1.4000000000000001 0 -2.1 0 -2.6350000000000002 -0.2725a2.5 2.5 0 0 1 -1.0925 -1.0925C1.875 11.225000000000001 1.875 10.525 1.875 9.125M5.875 13.125V1.875M1.875 9.125V5.875m0 3.25h11.25m0 0V5.875m0 3.25c0 1.4000000000000001 0 2.1 -0.2725 2.6350000000000002a2.5 2.5 0 0 1 -1.0925 1.0925C11.225000000000001 13.125 10.525 13.125 9.125 13.125m0 0V1.875m0 0H5.875m3.25 0c1.4000000000000001 0 2.1 0 2.6350000000000002 0.2725a2.5 2.5 0 0 1 1.0925 1.0925C13.125 3.775 13.125 4.475 13.125 5.875m0 0H1.875M5.875 1.875c-1.4000000000000001 0 -2.1 0 -2.6350000000000002 0.2725a2.5 2.5 0 0 0 -1.0925 1.0925C1.875 3.775 1.875 4.475 1.875 5.875" stroke-width="1"></path></svg>